STARTFONT 2.1
FONT -FontForge-Fredoka One-Book-R-Normal--14-140-72-72-P-80-ISO10646-1
SIZE 14 72 72
FONTBOUNDINGBOX 19 17 -2 -3
COMMENT "Generated by fontforge, http://fontforge.sourceforge.net"
COMMENT "Copyright (c) 2011 Milena B Brandao (milenabbrandao@gmail.com), with Reserved Font Name "Fredoka""
STARTPROPERTIES 39
FOUNDRY "FontForge"
FAMILY_NAME "Fredoka One"
WEIGHT_NAME "Book"
SLANT "R"
SETWIDTH_NAME "Normal"
ADD_STYLE_NAME ""
PIXEL_SIZE 14
POINT_SIZE 140
RESOLUTION_X 72
RESOLUTION_Y 72
SPACING "P"
AVERAGE_WIDTH 80
CHARSET_REGISTRY "ISO10646"
CHARSET_ENCODING "1"
FONTNAME_REGISTRY ""
CHARSET_COLLECTIONS "ISO10646-1"
FONT_NAME "FredokaOne-Regular"
FACE_NAME "Fredoka One"
COPYRIGHT "Copyright (c) 2011 Milena B Brandao (milenabbrandao@gmail.com), with Reserved Font Name "Fredoka""
FONT_VERSION "1.001"
FONT_ASCENT 11
FONT_DESCENT 3
UNDERLINE_POSITION -1
UNDERLINE_THICKNESS 1
X_HEIGHT 6
CAP_HEIGHT 10
RAW_ASCENT 800
RAW_DESCENT 200
NORM_SPACE 4
RELATIVE_WEIGHT 40
RELATIVE_SETWIDTH 50
SUPERSCRIPT_X 0
SUPERSCRIPT_Y 6
SUPERSCRIPT_SIZE 9
SUBSCRIPT_X 0
SUBSCRIPT_Y 1
SUBSCRIPT_SIZE 9
AVG_LOWERCASE_WIDTH 78
AVG_UPPERCASE_WIDTH 97
ENDPROPERTIES
CHARS 235
STARTCHAR space
ENCODING 32
SWIDTH 253 0
DWIDTH 4 0
BBX 1 1 0 0
BITMAP
00
ENDCHAR
STARTCHAR exclam
ENCODING 33
SWIDTH 267 0
DWIDTH 4 0
BBX 2 10 1 0
BITMAP
C0
C0
C0
C0
C0
C0
00
C0
C0
C0
ENDCHAR
STARTCHAR quotedbl
ENCODING 34
SWIDTH 429 0
DWIDTH 6 0
BBX 6 5 0 5
BITMAP
FC
FC
CC
48
48
ENDCHAR
STARTCHAR numbersign
ENCODING 35
SWIDTH 749 0
DWIDTH 10 0
BBX 10 10 0 0
BITMAP
1980
1980
7FC0
7FC0
3300
3300
FFC0
FF80
3300
3300
ENDCHAR
STARTCHAR dollar
ENCODING 36
SWIDTH 475 0
DWIDTH 7 0
BBX 6 12 0 -1
BITMAP
10
30
78
7C
C0
78
3C
4C
FC
7C
30
10
ENDCHAR
STARTCHAR percent
ENCODING 37
SWIDTH 838 0
DWIDTH 12 0
BBX 10 11 1 0
BITMAP
0100
F300
B200
9600
F400
6C00
0BC0
1BC0
1640
33C0
2380
ENDCHAR
STARTCHAR ampersand
ENCODING 38
SWIDTH 748 0
DWIDTH 10 0
BBX 10 11 0 0
BITMAP
1C00
3E00
7600
7600
3E00
3800
79C0
FF80
EF80
7FC0
7DC0
ENDCHAR
STARTCHAR quotesingle
ENCODING 39
SWIDTH 208 0
DWIDTH 3 0
BBX 3 5 0 5
BITMAP
E0
E0
C0
40
40
ENDCHAR
STARTCHAR parenleft
ENCODING 40
SWIDTH 384 0
DWIDTH 5 0
BBX 5 14 0 -3
BITMAP
18
38
70
60
60
60
E0
E0
E0
60
60
60
38
18
ENDCHAR
STARTCHAR parenright
ENCODING 41
SWIDTH 384 0
DWIDTH 5 0
BBX 5 14 0 -3
BITMAP
C0
E0
30
30
18
18
18
18
18
18
38
30
F0
E0
ENDCHAR
STARTCHAR asterisk
ENCODING 42
SWIDTH 503 0
DWIDTH 7 0
BBX 7 6 0 4
BITMAP
38
7E
FE
38
7C
6C
ENDCHAR
STARTCHAR plus
ENCODING 43
SWIDTH 527 0
DWIDTH 7 0
BBX 7 7 0 0
BITMAP
18
18
FE
FE
18
18
10
ENDCHAR
STARTCHAR comma
ENCODING 44
SWIDTH 238 0
DWIDTH 3 0
BBX 3 5 0 -2
BITMAP
40
E0
E0
60
C0
ENDCHAR
STARTCHAR hyphen
ENCODING 45
SWIDTH 433 0
DWIDTH 6 0
BBX 6 2 0 2
BITMAP
FC
FC
ENDCHAR
STARTCHAR period
ENCODING 46
SWIDTH 237 0
DWIDTH 3 0
BBX 3 3 0 0
BITMAP
40
E0
E0
ENDCHAR
STARTCHAR slash
ENCODING 47
SWIDTH 526 0
DWIDTH 7 0
BBX 7 12 0 -1
BITMAP
06
06
0E
0C
1C
18
38
30
70
60
E0
40
ENDCHAR
STARTCHAR zero
ENCODING 48
SWIDTH 608 0
DWIDTH 9 0
BBX 8 10 0 0
BITMAP
3E
7E
67
E3
E3
E3
E3
77
7E
3C
ENDCHAR
STARTCHAR one
ENCODING 49
SWIDTH 407 0
DWIDTH 6 0
BBX 5 10 0 0
BITMAP
18
78
F8
F8
18
18
18
18
18
18
ENDCHAR
STARTCHAR two
ENCODING 50
SWIDTH 609 0
DWIDTH 9 0
BBX 8 10 0 0
BITMAP
3E
7E
E7
E7
47
1E
3C
78
FF
7F
ENDCHAR
STARTCHAR three
ENCODING 51
SWIDTH 608 0
DWIDTH 9 0
BBX 8 10 0 0
BITMAP
3E
7F
67
0F
1E
1F
E3
E7
7F
3E
ENDCHAR
STARTCHAR four
ENCODING 52
SWIDTH 592 0
DWIDTH 8 0
BBX 8 10 0 0
BITMAP
77
77
77
67
E7
FF
FF
07
07
07
ENDCHAR
STARTCHAR five
ENCODING 53
SWIDTH 530 0
DWIDTH 7 0
BBX 7 10 0 0
BITMAP
7E
7E
60
78
FC
FE
06
6E
FE
7C
ENDCHAR
STARTCHAR six
ENCODING 54
SWIDTH 560 0
DWIDTH 8 0
BBX 7 10 0 0
BITMAP
1E
3E
78
60
FC
FE
E6
66
7E
3C
ENDCHAR
STARTCHAR seven
ENCODING 55
SWIDTH 561 0
DWIDTH 8 0
BBX 8 10 0 0
BITMAP
FF
FF
06
0E
1C
1C
38
30
30
30
ENDCHAR
STARTCHAR eight
ENCODING 56
SWIDTH 582 0
DWIDTH 8 0
BBX 8 10 0 0
BITMAP
3E
7E
66
7E
7E
7E
E7
E7
7E
3C
ENDCHAR
STARTCHAR nine
ENCODING 57
SWIDTH 560 0
DWIDTH 8 0
BBX 7 10 0 0
BITMAP
7C
7E
E6
E6
7E
3E
0E
3E
7C
70
ENDCHAR
STARTCHAR colon
ENCODING 58
SWIDTH 238 0
DWIDTH 3 0
BBX 3 7 0 0
BITMAP
E0
E0
40
00
40
E0
E0
ENDCHAR
STARTCHAR semicolon
ENCODING 59
SWIDTH 237 0
DWIDTH 3 0
BBX 3 9 0 -2
BITMAP
E0
E0
40
00
40
E0
E0
60
C0
ENDCHAR
STARTCHAR less
ENCODING 60
SWIDTH 627 0
DWIDTH 9 0
BBX 9 10 0 0
BITMAP
0100
0780
0F00
3C00
F800
F000
7C00
1E00
0780
0300
ENDCHAR
STARTCHAR equal
ENCODING 61
SWIDTH 478 0
DWIDTH 7 0
BBX 6 5 0 1
BITMAP
7C
FC
00
7C
FC
ENDCHAR
STARTCHAR greater
ENCODING 62
SWIDTH 627 0
DWIDTH 9 0
BBX 9 10 0 0
BITMAP
4000
E000
7800
3E00
0F00
0780
1E00
7C00
F000
4000
ENDCHAR
STARTCHAR question
ENCODING 63
SWIDTH 512 0
DWIDTH 7 0
BBX 7 11 0 0
BITMAP
10
7C
FE
C6
0E
1C
38
00
10
38
38
ENDCHAR
STARTCHAR at
ENCODING 64
SWIDTH 908 0
DWIDTH 13 0
BBX 12 11 0 -2
BITMAP
1FC0
39E0
67B0
4FB0
D990
D990
CF30
6530
71E0
3E80
0C00
ENDCHAR
STARTCHAR A
ENCODING 65
SWIDTH 765 0
DWIDTH 11 0
BBX 11 10 0 0
BITMAP
0C00
0E00
1E00
1F00
3B00
3B80
7F80
7FC0
E0E0
E0C0
ENDCHAR
STARTCHAR B
ENCODING 66
SWIDTH 646 0
DWIDTH 9 0
BBX 8 10 1 0
BITMAP
FC
FE
C6
C6
DE
DE
C7
CF
FE
FC
ENDCHAR
STARTCHAR C
ENCODING 67
SWIDTH 679 0
DWIDTH 10 0
BBX 9 10 0 0
BITMAP
1F00
3F80
7180
E000
E000
E000
6000
7980
3F80
1F00
ENDCHAR
STARTCHAR D
ENCODING 68
SWIDTH 704 0
DWIDTH 10 0
BBX 9 10 1 0
BITMAP
FC00
FE00
C700
C300
C380
C300
C700
CF00
FE00
FC00
ENDCHAR
STARTCHAR E
ENCODING 69
SWIDTH 638 0
DWIDTH 9 0
BBX 8 10 1 0
BITMAP
FF
FF
C0
C0
FC
FC
C0
C0
FF
FE
ENDCHAR
STARTCHAR F
ENCODING 70
SWIDTH 637 0
DWIDTH 9 0
BBX 8 10 1 0
BITMAP
FF
FF
C0
C0
FC
FC
C0
C0
C0
C0
ENDCHAR
STARTCHAR G
ENCODING 71
SWIDTH 714 0
DWIDTH 10 0
BBX 9 10 0 0
BITMAP
1F80
7F80
7100
E000
E780
E780
6180
7980
3F80
1F00
ENDCHAR
STARTCHAR H
ENCODING 72
SWIDTH 699 0
DWIDTH 10 0
BBX 8 10 1 0
BITMAP
C3
C3
C3
C3
FF
FF
C3
C3
C3
C3
ENDCHAR
STARTCHAR I
ENCODING 73
SWIDTH 257 0
DWIDTH 4 0
BBX 2 10 1 0
BITMAP
C0
C0
C0
C0
C0
C0
C0
C0
C0
C0
ENDCHAR
STARTCHAR J
ENCODING 74
SWIDTH 549 0
DWIDTH 8 0
BBX 7 10 0 0
BITMAP
06
06
06
06
06
06
06
EE
FC
7C
ENDCHAR
STARTCHAR K
ENCODING 75
SWIDTH 639 0
DWIDTH 9 0
BBX 7 10 1 0
BITMAP
C6
CE
DC
F8
F0
F8
FC
DE
CE
C6
ENDCHAR
STARTCHAR L
ENCODING 76
SWIDTH 587 0
DWIDTH 8 0
BBX 7 10 1 0
BITMAP
C0
C0
C0
C0
C0
C0
C0
C0
FE
FE
ENDCHAR
STARTCHAR M
ENCODING 77
SWIDTH 870 0
DWIDTH 12 0
BBX 11 10 1 0
BITMAP
C0E0
E1E0
F3E0
F3E0
FFE0
DEE0
CCE0
C0E0
C0E0
C0E0
ENDCHAR
STARTCHAR N
ENCODING 78
SWIDTH 720 0
DWIDTH 10 0
BBX 9 10 1 0
BITMAP
C300
E380
F380
F380
FB80
DF80
CF80
C780
C780
C300
ENDCHAR
STARTCHAR O
ENCODING 79
SWIDTH 775 0
DWIDTH 11 0
BBX 11 10 0 0
BITMAP
1F00
3F80
71C0
60C0
E0E0
E0C0
60C0
73C0
3F80
1F00
ENDCHAR
STARTCHAR P
ENCODING 80
SWIDTH 632 0
DWIDTH 9 0
BBX 8 10 1 0
BITMAP
FC
FE
C6
C7
CE
FE
FC
C0
C0
C0
ENDCHAR
STARTCHAR Q
ENCODING 81
SWIDTH 830 0
DWIDTH 12 0
BBX 11 10 0 0
BITMAP
1F00
3F80
71C0
60C0
E0E0
E0C0
60C0
73C0
3FE0
1F60
ENDCHAR
STARTCHAR R
ENCODING 82
SWIDTH 631 0
DWIDTH 9 0
BBX 8 10 1 0
BITMAP
FC
FE
C6
C7
CE
FE
FE
CE
C7
C6
ENDCHAR
STARTCHAR S
ENCODING 83
SWIDTH 583 0
DWIDTH 8 0
BBX 8 10 0 0
BITMAP
7E
7E
64
70
7E
1F
47
E7
7E
3C
ENDCHAR
STARTCHAR T
ENCODING 84
SWIDTH 731 0
DWIDTH 10 0
BBX 10 10 0 0
BITMAP
FFC0
FFC0
0C00
0C00
0C00
0C00
0C00
0C00
0C00
0C00
ENDCHAR
STARTCHAR U
ENCODING 85
SWIDTH 726 0
DWIDTH 10 0
BBX 9 10 1 0
BITMAP
C380
C380
C380
C380
C380
C380
C300
E700
7F00
3C00
ENDCHAR
STARTCHAR V
ENCODING 86
SWIDTH 783 0
DWIDTH 11 0
BBX 11 10 0 0
BITMAP
E0E0
E0E0
71C0
71C0
3B80
3B80
1B00
1F00
0E00
0E00
ENDCHAR
STARTCHAR W
ENCODING 87
SWIDTH 999 0
DWIDTH 14 0
BBX 14 10 0 0
BITMAP
E31C
E71C
6798
77B8
7FB8
3FF0
3CF0
3CE0
1CE0
1860
ENDCHAR
STARTCHAR X
ENCODING 88
SWIDTH 741 0
DWIDTH 10 0
BBX 10 11 0 0
BITMAP
4080
E1C0
71C0
7B80
3F00
1E00
1F00
3F00
7380
E1C0
60C0
ENDCHAR
STARTCHAR Y
ENCODING 89
SWIDTH 686 0
DWIDTH 10 0
BBX 9 10 0 0
BITMAP
E180
E380
7300
3F00
3E00
1C00
0C00
0C00
0C00
0C00
ENDCHAR
STARTCHAR Z
ENCODING 90
SWIDTH 643 0
DWIDTH 9 0
BBX 9 10 0 0
BITMAP
FF00
FF00
0700
0E00
1C00
3800
3800
7000
FF80
7F80
ENDCHAR
STARTCHAR bracketleft
ENCODING 91
SWIDTH 348 0
DWIDTH 5 0
BBX 4 14 1 -3
BITMAP
F0
F0
C0
C0
C0
C0
C0
C0
C0
C0
C0
C0
F0
F0
ENDCHAR
STARTCHAR backslash
ENCODING 92
SWIDTH 528 0
DWIDTH 7 0
BBX 7 12 0 -1
BITMAP
40
E0
60
70
30
38
18
1C
0C
0E
06
06
ENDCHAR
STARTCHAR bracketright
ENCODING 93
SWIDTH 348 0
DWIDTH 5 0
BBX 4 14 0 -3
BITMAP
F0
F0
30
30
30
30
30
30
30
30
30
30
F0
F0
ENDCHAR
STARTCHAR asciicircum
ENCODING 94
SWIDTH 526 0
DWIDTH 7 0
BBX 6 5 1 3
BITMAP
20
70
F8
DC
88
ENDCHAR
STARTCHAR underscore
ENCODING 95
SWIDTH 826 0
DWIDTH 12 0
BBX 11 2 0 -3
BITMAP
FFE0
FFE0
ENDCHAR
STARTCHAR grave
ENCODING 96
SWIDTH 482 0
DWIDTH 7 0
BBX 4 3 1 8
BITMAP
40
F0
30
ENDCHAR
STARTCHAR a
ENCODING 97
SWIDTH 596 0
DWIDTH 8 0
BBX 8 7 0 0
BITMAP
3F
7F
E7
E7
7F
7F
3F
ENDCHAR
STARTCHAR b
ENCODING 98
SWIDTH 592 0
DWIDTH 8 0
BBX 7 11 1 0
BITMAP
C0
C0
C0
C0
FC
FC
CE
CE
EE
FC
F8
ENDCHAR
STARTCHAR c
ENCODING 99
SWIDTH 517 0
DWIDTH 7 0
BBX 7 7 0 0
BITMAP
3E
7E
E4
E0
74
7E
3C
ENDCHAR
STARTCHAR d
ENCODING 100
SWIDTH 598 0
DWIDTH 8 0
BBX 8 11 0 0
BITMAP
03
07
07
07
3F
7F
67
E7
7F
7F
3F
ENDCHAR
STARTCHAR e
ENCODING 101
SWIDTH 573 0
DWIDTH 8 0
BBX 8 8 0 0
BITMAP
08
3E
7F
E7
FE
60
7E
3E
ENDCHAR
STARTCHAR f
ENCODING 102
SWIDTH 450 0
DWIDTH 6 0
BBX 6 11 0 0
BITMAP
1C
3C
38
70
FC
FC
70
70
70
70
30
ENDCHAR
STARTCHAR g
ENCODING 103
SWIDTH 585 0
DWIDTH 8 0
BBX 8 10 0 -3
BITMAP
3F
7F
E7
E7
7F
7F
3F
27
7E
3C
ENDCHAR
STARTCHAR h
ENCODING 104
SWIDTH 605 0
DWIDTH 8 0
BBX 7 11 1 0
BITMAP
C0
C0
C0
C0
FC
FE
CE
CE
CE
CE
C6
ENDCHAR
STARTCHAR i
ENCODING 105
SWIDTH 255 0
DWIDTH 4 0
BBX 2 11 1 0
BITMAP
C0
C0
C0
00
C0
C0
C0
C0
C0
C0
C0
ENDCHAR
STARTCHAR j
ENCODING 106
SWIDTH 252 0
DWIDTH 4 0
BBX 5 14 -2 -3
BITMAP
18
18
18
00
18
18
18
18
18
18
18
38
F0
E0
ENDCHAR
STARTCHAR k
ENCODING 107
SWIDTH 536 0
DWIDTH 8 0
BBX 6 11 1 0
BITMAP
C0
C0
C0
C0
D8
FC
F8
F0
F8
DC
CC
ENDCHAR
STARTCHAR l
ENCODING 108
SWIDTH 327 0
DWIDTH 5 0
BBX 3 11 1 0
BITMAP
C0
C0
C0
C0
C0
C0
C0
C0
C0
E0
E0
ENDCHAR
STARTCHAR m
ENCODING 109
SWIDTH 851 0
DWIDTH 12 0
BBX 10 7 1 0
BITMAP
FBC0
FFC0
CCC0
CCC0
CCC0
CCC0
CCC0
ENDCHAR
STARTCHAR n
ENCODING 110
SWIDTH 606 0
DWIDTH 8 0
BBX 7 7 1 0
BITMAP
FC
FE
CE
CE
CE
CE
C6
ENDCHAR
STARTCHAR o
ENCODING 111
SWIDTH 600 0
DWIDTH 8 0
BBX 8 8 0 0
BITMAP
08
3E
7F
E7
E3
77
7E
3C
ENDCHAR
STARTCHAR p
ENCODING 112
SWIDTH 582 0
DWIDTH 8 0
BBX 7 10 1 -3
BITMAP
FC
FC
CE
CE
FE
FC
F8
C0
C0
C0
ENDCHAR
STARTCHAR q
ENCODING 113
SWIDTH 582 0
DWIDTH 8 0
BBX 8 10 0 -3
BITMAP
3F
7F
E7
E7
7F
7F
3F
07
07
07
ENDCHAR
STARTCHAR r
ENCODING 114
SWIDTH 457 0
DWIDTH 6 0
BBX 5 7 1 0
BITMAP
F8
F8
C0
C0
C0
C0
C0
ENDCHAR
STARTCHAR s
ENCODING 115
SWIDTH 489 0
DWIDTH 7 0
BBX 7 8 0 0
BITMAP
10
7C
6C
78
7C
4E
FC
7C
ENDCHAR
STARTCHAR t
ENCODING 116
SWIDTH 449 0
DWIDTH 6 0
BBX 6 10 0 0
BITMAP
30
70
70
FC
FC
70
70
30
3C
3C
ENDCHAR
STARTCHAR u
ENCODING 117
SWIDTH 606 0
DWIDTH 8 0
BBX 7 7 1 0
BITMAP
CE
CE
CE
CE
FE
FE
76
ENDCHAR
STARTCHAR v
ENCODING 118
SWIDTH 638 0
DWIDTH 9 0
BBX 9 8 0 0
BITMAP
4100
E380
E300
7700
3600
3E00
1C00
1C00
ENDCHAR
STARTCHAR w
ENCODING 119
SWIDTH 793 0
DWIDTH 11 0
BBX 11 7 0 0
BITMAP
EEE0
EEE0
6EC0
7FC0
3B80
3B80
1980
ENDCHAR
STARTCHAR x
ENCODING 120
SWIDTH 567 0
DWIDTH 8 0
BBX 8 7 0 0
BITMAP
E7
FE
7C
3C
7E
FF
66
ENDCHAR
STARTCHAR y
ENCODING 121
SWIDTH 604 0
DWIDTH 8 0
BBX 8 11 0 -3
BITMAP
40
E3
67
76
3E
3E
1C
1C
18
38
30
ENDCHAR
STARTCHAR z
ENCODING 122
SWIDTH 586 0
DWIDTH 8 0
BBX 8 7 0 0
BITMAP
7F
7E
1C
38
70
FF
7F
ENDCHAR
STARTCHAR braceleft
ENCODING 123
SWIDTH 381 0
DWIDTH 5 0
BBX 5 14 0 -3
BITMAP
18
38
30
30
30
30
F0
E0
30
30
30
30
38
18
ENDCHAR
STARTCHAR bar
ENCODING 124
SWIDTH 217 0
DWIDTH 3 0
BBX 1 14 1 -3
BITMAP
80
80
80
80
80
80
80
80
80
80
80
80
80
80
ENDCHAR
STARTCHAR braceright
ENCODING 125
SWIDTH 381 0
DWIDTH 5 0
BBX 5 14 0 -3
BITMAP
C0
E0
60
70
70
30
38
38
30
60
60
70
E0
E0
ENDCHAR
STARTCHAR asciitilde
ENCODING 126
SWIDTH 651 0
DWIDTH 9 0
BBX 7 3 1 2
BITMAP
F6
FE
DC
ENDCHAR
STARTCHAR exclamdown
ENCODING 161
SWIDTH 268 0
DWIDTH 4 0
BBX 2 10 1 -3
BITMAP
C0
C0
00
00
C0
C0
C0
C0
C0
C0
ENDCHAR
STARTCHAR cent
ENCODING 162
SWIDTH 434 0
DWIDTH 6 0
BBX 6 10 0 -1
BITMAP
10
10
38
7C
E0
E0
7C
38
10
10
ENDCHAR
STARTCHAR sterling
ENCODING 163
SWIDTH 675 0
DWIDTH 9 0
BBX 9 10 0 0
BITMAP
1F00
3F80
3180
7000
FC00
FC00
3000
3000
7F80
7F80
ENDCHAR
STARTCHAR currency
ENCODING 164
SWIDTH 677 0
DWIDTH 9 0
BBX 9 11 0 0
BITMAP
4180
F380
7F00
7F00
6180
6180
6180
7700
7F00
FF80
4180
ENDCHAR
STARTCHAR yen
ENCODING 165
SWIDTH 677 0
DWIDTH 9 0
BBX 9 10 0 0
BITMAP
E180
E380
7300
3F00
3E00
7F00
0C00
3F00
7F00
0C00
ENDCHAR
STARTCHAR brokenbar
ENCODING 166
SWIDTH 215 0
DWIDTH 3 0
BBX 1 14 1 -3
BITMAP
80
80
80
80
80
80
80
00
80
80
80
80
80
80
ENDCHAR
STARTCHAR section
ENCODING 167
SWIDTH 560 0
DWIDTH 8 0
BBX 7 14 0 -3
BITMAP
38
7E
6E
60
7C
7E
6E
66
7E
3E
06
E6
7E
3C
ENDCHAR
STARTCHAR dieresis
ENCODING 168
SWIDTH 489 0
DWIDTH 7 0
BBX 6 3 1 8
BITMAP
CC
DC
C8
ENDCHAR
STARTCHAR copyright
ENCODING 169
SWIDTH 711 0
DWIDTH 10 0
BBX 10 9 0 1
BITMAP
3F00
4C80
5E80
F0C0
F0C0
DE80
4C80
7F00
1E00
ENDCHAR
STARTCHAR ordfeminine
ENCODING 170
SWIDTH 445 0
DWIDTH 6 0
BBX 6 5 0 5
BITMAP
7C
7C
CC
FC
7C
ENDCHAR
STARTCHAR guillemotleft
ENCODING 171
SWIDTH 668 0
DWIDTH 9 0
BBX 9 7 0 0
BITMAP
1980
3B80
7700
EE00
7700
3B80
1980
ENDCHAR
STARTCHAR logicalnot
ENCODING 172
SWIDTH 526 0
DWIDTH 7 0
BBX 7 4 0 2
BITMAP
FE
FE
06
06
ENDCHAR
STARTCHAR registered
ENCODING 174
SWIDTH 711 0
DWIDTH 10 0
BBX 10 9 0 1
BITMAP
3F00
5C80
5E80
DAC0
DEC0
DE80
5280
7F00
1E00
ENDCHAR
STARTCHAR degree
ENCODING 176
SWIDTH 407 0
DWIDTH 6 0
BBX 5 5 0 6
BITMAP
30
78
C8
D8
78
ENDCHAR
STARTCHAR plusminus
ENCODING 177
SWIDTH 505 0
DWIDTH 7 0
BBX 7 8 0 0
BITMAP
10
38
FE
FE
38
10
7C
7E
ENDCHAR
STARTCHAR twosuperior
ENCODING 178
SWIDTH 455 0
DWIDTH 6 0
BBX 6 8 0 3
BITMAP
10
78
FC
CC
1C
78
FC
7C
ENDCHAR
STARTCHAR threesuperior
ENCODING 179
SWIDTH 457 0
DWIDTH 6 0
BBX 6 8 0 3
BITMAP
10
78
6C
0C
3C
CC
7C
78
ENDCHAR
STARTCHAR acute
ENCODING 180
SWIDTH 605 0
DWIDTH 8 0
BBX 4 3 2 8
BITMAP
30
F0
E0
ENDCHAR
STARTCHAR mu
ENCODING 181
SWIDTH 601 0
DWIDTH 8 0
BBX 7 10 1 -3
BITMAP
CE
CE
CE
CE
FE
FE
F6
C0
C0
C0
ENDCHAR
STARTCHAR paragraph
ENCODING 182
SWIDTH 614 0
DWIDTH 9 0
BBX 8 12 0 -3
BITMAP
3E
7F
FB
FB
7B
1B
1B
1B
1B
1B
1B
1B
ENDCHAR
STARTCHAR periodcentered
ENCODING 183
SWIDTH 237 0
DWIDTH 3 0
BBX 3 3 0 3
BITMAP
40
E0
E0
ENDCHAR
STARTCHAR cedilla
ENCODING 184
SWIDTH 559 0
DWIDTH 8 0
BBX 3 3 2 -3
BITMAP
E0
E0
40
ENDCHAR
STARTCHAR onesuperior
ENCODING 185
SWIDTH 321 0
DWIDTH 5 0
BBX 4 7 0 3
BITMAP
30
F0
F0
30
30
30
30
ENDCHAR
STARTCHAR ordmasculine
ENCODING 186
SWIDTH 439 0
DWIDTH 6 0
BBX 6 5 0 5
BITMAP
38
78
CC
CC
78
ENDCHAR
STARTCHAR guillemotright
ENCODING 187
SWIDTH 669 0
DWIDTH 9 0
BBX 9 7 0 0
BITMAP
EE00
7700
3B80
3B80
7700
EE00
4400
ENDCHAR
STARTCHAR onequarter
ENCODING 188
SWIDTH 786 0
DWIDTH 11 0
BBX 9 11 1 0
BITMAP
6200
E200
E400
6C00
6800
7A80
1680
3680
2780
6080
4080
ENDCHAR
STARTCHAR onehalf
ENCODING 189
SWIDTH 804 0
DWIDTH 11 0
BBX 9 11 1 0
BITMAP
6200
E200
E400
6C00
6800
7B00
1780
3580
2380
6780
4780
ENDCHAR
STARTCHAR threequarters
ENCODING 190
SWIDTH 842 0
DWIDTH 12 0
BBX 10 11 1 0
BITMAP
6100
F300
B200
7600
9400
FFC0
0BC0
1AC0
13C0
20C0
60C0
ENDCHAR
STARTCHAR questiondown
ENCODING 191
SWIDTH 511 0
DWIDTH 7 0
BBX 7 10 0 -3
BITMAP
38
38
00
18
38
70
E4
E6
7E
3C
ENDCHAR
STARTCHAR Agrave
ENCODING 192
SWIDTH 765 0
DWIDTH 11 0
BBX 11 13 0 0
BITMAP
1E00
1E00
0000
0C00
0E00
1E00
1F00
3B00
3B80
7F80
7FC0
E0E0
E0C0
ENDCHAR
STARTCHAR Aacute
ENCODING 193
SWIDTH 765 0
DWIDTH 11 0
BBX 11 14 0 0
BITMAP
0200
0F00
0E00
0000
0C00
0E00
1E00
1F00
3B00
3B80
7F80
7FC0
E0E0
E0C0
ENDCHAR
STARTCHAR Acircumflex
ENCODING 194
SWIDTH 765 0
DWIDTH 11 0
BBX 11 14 0 0
BITMAP
0400
1F00
1B00
0000
0C00
0E00
1E00
1F00
3B00
3B80
7F80
7FC0
E0E0
E0C0
ENDCHAR
STARTCHAR Atilde
ENCODING 195
SWIDTH 765 0
DWIDTH 11 0
BBX 11 14 0 0
BITMAP
0900
1F00
1600
0000
0C00
0E00
1E00
1F00
3B00
3B80
7F80
7FC0
E0E0
E0C0
ENDCHAR
STARTCHAR Adieresis
ENCODING 196
SWIDTH 765 0
DWIDTH 11 0
BBX 11 14 0 0
BITMAP
1300
3B80
3B00
0000
0C00
0E00
1E00
1F00
3B00
3B80
7F80
7FC0
E0E0
E0C0
ENDCHAR
STARTCHAR Aring
ENCODING 197
SWIDTH 765 0
DWIDTH 11 0
BBX 11 13 0 0
BITMAP
0C00
0A00
0A00
0C00
0E00
1E00
1F00
3B00
3B80
7F80
7FC0
E0E0
E0C0
ENDCHAR
STARTCHAR AE
ENCODING 198
SWIDTH 1148 0
DWIDTH 16 0
BBX 16 10 0 0
BITMAP
01FF
03FF
07C0
0FC0
0EFC
1CFC
3FC0
7FC0
E0FF
C0FF
ENDCHAR
STARTCHAR Ccedilla
ENCODING 199
SWIDTH 679 0
DWIDTH 10 0
BBX 9 13 0 -3
BITMAP
1F00
3F80
7180
E000
E000
E000
6000
7980
3F80
1F00
0E00
0A00
0400
ENDCHAR
STARTCHAR Egrave
ENCODING 200
SWIDTH 638 0
DWIDTH 9 0
BBX 8 13 1 0
BITMAP
38
3C
00
FF
FF
C0
C0
FC
FC
C0
C0
FF
FE
ENDCHAR
STARTCHAR Eacute
ENCODING 201
SWIDTH 638 0
DWIDTH 9 0
BBX 8 14 1 0
BITMAP
04
3C
38
00
FF
FF
C0
C0
FC
FC
C0
C0
FF
FE
ENDCHAR
STARTCHAR Ecircumflex
ENCODING 202
SWIDTH 638 0
DWIDTH 9 0
BBX 8 14 1 0
BITMAP
10
7C
6C
00
FF
FF
C0
C0
FC
FC
C0
C0
FF
FE
ENDCHAR
STARTCHAR Edieresis
ENCODING 203
SWIDTH 638 0
DWIDTH 9 0
BBX 8 14 1 0
BITMAP
64
EE
6E
00
FF
FF
C0
C0
FC
FC
C0
C0
FF
FE
ENDCHAR
STARTCHAR Igrave
ENCODING 204
SWIDTH 267 0
DWIDTH 4 0
BBX 4 13 -1 0
BITMAP
F0
70
00
30
30
30
30
30
30
30
30
30
30
ENDCHAR
STARTCHAR Iacute
ENCODING 205
SWIDTH 269 0
DWIDTH 4 0
BBX 4 14 0 0
BITMAP
10
F0
F0
00
60
60
60
60
60
60
60
60
60
60
ENDCHAR
STARTCHAR Icircumflex
ENCODING 206
SWIDTH 270 0
DWIDTH 4 0
BBX 6 14 -1 0
BITMAP
20
FC
F8
00
30
30
30
30
30
30
30
30
30
30
ENDCHAR
STARTCHAR Idieresis
ENCODING 207
SWIDTH 268 0
DWIDTH 4 0
BBX 6 14 -1 0
BITMAP
CC
CC
CC
00
30
30
30
30
30
30
30
30
30
30
ENDCHAR
STARTCHAR Eth
ENCODING 208
SWIDTH 775 0
DWIDTH 11 0
BBX 11 10 0 0
BITMAP
3F00
3F80
31C0
30C0
F8E0
F8C0
31C0
33C0
3F80
3F00
ENDCHAR
STARTCHAR Ntilde
ENCODING 209
SWIDTH 720 0
DWIDTH 10 0
BBX 9 14 1 0
BITMAP
1400
7E00
2C00
0000
C300
E380
F380
F380
FB80
DF80
CF80
C780
C780
C300
ENDCHAR
STARTCHAR Ograve
ENCODING 210
SWIDTH 775 0
DWIDTH 11 0
BBX 11 13 0 0
BITMAP
1E00
1E00
0000
1F00
3F80
71C0
60C0
E0E0
E0C0
60C0
73C0
3F80
1F00
ENDCHAR
STARTCHAR Oacute
ENCODING 211
SWIDTH 775 0
DWIDTH 11 0
BBX 11 14 0 0
BITMAP
0200
0F00
0E00
0000
1F00
3F80
71C0
60C0
E0E0
E0C0
60C0
73C0
3F80
1F00
ENDCHAR
STARTCHAR Ocircumflex
ENCODING 212
SWIDTH 775 0
DWIDTH 11 0
BBX 11 14 0 0
BITMAP
0400
1F00
1B00
0000
1F00
3F80
71C0
60C0
E0E0
E0C0
60C0
73C0
3F80
1F00
ENDCHAR
STARTCHAR Otilde
ENCODING 213
SWIDTH 775 0
DWIDTH 11 0
BBX 11 14 0 0
BITMAP
0D00
1F80
1700
0000
1F00
3F80
71C0
60C0
E0E0
E0C0
60C0
73C0
3F80
1F00
ENDCHAR
STARTCHAR Odieresis
ENCODING 214
SWIDTH 775 0
DWIDTH 11 0
BBX 11 14 0 0
BITMAP
1300
3B80
3B00
0000
1F00
3F80
71C0
60C0
E0E0
E0C0
60C0
73C0
3F80
1F00
ENDCHAR
STARTCHAR multiply
ENCODING 215
SWIDTH 521 0
DWIDTH 7 0
BBX 7 7 0 0
BITMAP
46
EE
7C
38
7C
EE
44
ENDCHAR
STARTCHAR Oslash
ENCODING 216
SWIDTH 775 0
DWIDTH 11 0
BBX 11 12 0 -1
BITMAP
0180
1F80
3F80
77C0
66C0
EEE0
EEC0
7CC0
7FC0
3F80
3F00
1000
ENDCHAR
STARTCHAR Ugrave
ENCODING 217
SWIDTH 726 0
DWIDTH 10 0
BBX 9 13 1 0
BITMAP
7800
3800
0000
C380
C380
C380
C380
C380
C380
C300
E700
7F00
3C00
ENDCHAR
STARTCHAR Uacute
ENCODING 218
SWIDTH 726 0
DWIDTH 10 0
BBX 9 14 1 0
BITMAP
0400
1E00
1C00
0000
C380
C380
C380
C380
C380
C380
C300
E700
7F00
3C00
ENDCHAR
STARTCHAR Ucircumflex
ENCODING 219
SWIDTH 726 0
DWIDTH 10 0
BBX 9 14 1 0
BITMAP
0800
7E00
3600
0000
C380
C380
C380
C380
C380
C380
C300
E700
7F00
3C00
ENDCHAR
STARTCHAR Udieresis
ENCODING 220
SWIDTH 726 0
DWIDTH 10 0
BBX 9 14 1 0
BITMAP
6600
6600
6600
0000
C380
C380
C380
C380
C380
C380
C300
E700
7F00
3C00
ENDCHAR
STARTCHAR Yacute
ENCODING 221
SWIDTH 686 0
DWIDTH 10 0
BBX 9 14 0 0
BITMAP
0200
1E00
1C00
0000
E180
E380
7300
3F00
3E00
1C00
0C00
0C00
0C00
0C00
ENDCHAR
STARTCHAR Thorn
ENCODING 222
SWIDTH 634 0
DWIDTH 9 0
BBX 8 10 1 0
BITMAP
C0
F8
FE
FE
C7
C6
FE
FC
F8
C0
ENDCHAR
STARTCHAR germandbls
ENCODING 223
SWIDTH 633 0
DWIDTH 9 0
BBX 8 11 1 0
BITMAP
10
FC
FC
CC
D8
D8
DE
C6
C7
DE
DE
ENDCHAR
STARTCHAR agrave
ENCODING 224
SWIDTH 596 0
DWIDTH 8 0
BBX 8 11 0 0
BITMAP
10
3C
0C
00
3F
7F
E7
E7
7F
7F
3F
ENDCHAR
STARTCHAR aacute
ENCODING 225
SWIDTH 596 0
DWIDTH 8 0
BBX 8 11 0 0
BITMAP
04
3E
18
00
3F
7F
E7
E7
7F
7F
3F
ENDCHAR
STARTCHAR acircumflex
ENCODING 226
SWIDTH 596 0
DWIDTH 8 0
BBX 8 11 0 0
BITMAP
1C
3E
36
00
3F
7F
E7
E7
7F
7F
3F
ENDCHAR
STARTCHAR atilde
ENCODING 227
SWIDTH 596 0
DWIDTH 8 0
BBX 8 11 0 0
BITMAP
1A
3E
24
00
3F
7F
E7
E7
7F
7F
3F
ENDCHAR
STARTCHAR adieresis
ENCODING 228
SWIDTH 596 0
DWIDTH 8 0
BBX 8 11 0 0
BITMAP
37
77
32
00
3F
7F
E7
E7
7F
7F
3F
ENDCHAR
STARTCHAR aring
ENCODING 229
SWIDTH 596 0
DWIDTH 8 0
BBX 8 11 0 0
BITMAP
08
14
1C
00
3F
7F
E7
E7
7F
7F
3F
ENDCHAR
STARTCHAR ae
ENCODING 230
SWIDTH 910 0
DWIDTH 13 0
BBX 12 7 0 0
BITMAP
7FF0
7FF0
6730
7FF0
E700
FFF0
79F0
ENDCHAR
STARTCHAR ccedilla
ENCODING 231
SWIDTH 524 0
DWIDTH 7 0
BBX 7 11 0 -3
BITMAP
08
3E
7E
E4
E0
74
7E
3C
18
1C
18
ENDCHAR
STARTCHAR egrave
ENCODING 232
SWIDTH 573 0
DWIDTH 8 0
BBX 8 11 0 0
BITMAP
30
3C
0C
08
3E
7F
E7
FE
60
7E
3E
ENDCHAR
STARTCHAR eacute
ENCODING 233
SWIDTH 573 0
DWIDTH 8 0
BBX 8 11 0 0
BITMAP
04
3C
18
08
3E
7F
E7
FE
60
7E
3E
ENDCHAR
STARTCHAR ecircumflex
ENCODING 234
SWIDTH 573 0
DWIDTH 8 0
BBX 8 11 0 0
BITMAP
18
7E
26
08
3E
7F
E7
FE
60
7E
3E
ENDCHAR
STARTCHAR edieresis
ENCODING 235
SWIDTH 573 0
DWIDTH 8 0
BBX 8 11 0 0
BITMAP
66
66
66
08
3E
7F
E7
FE
60
7E
3E
ENDCHAR
STARTCHAR igrave
ENCODING 236
SWIDTH 255 0
DWIDTH 4 0
BBX 4 11 -1 0
BITMAP
40
F0
30
00
30
30
30
30
30
30
30
ENDCHAR
STARTCHAR iacute
ENCODING 237
SWIDTH 255 0
DWIDTH 4 0
BBX 4 11 0 0
BITMAP
30
F0
E0
00
60
60
60
60
60
60
60
ENDCHAR
STARTCHAR icircumflex
ENCODING 238
SWIDTH 255 0
DWIDTH 4 0
BBX 6 11 -1 0
BITMAP
30
FC
C8
00
30
30
30
30
30
30
30
ENDCHAR
STARTCHAR idieresis
ENCODING 239
SWIDTH 255 0
DWIDTH 4 0
BBX 6 11 -1 0
BITMAP
CC
DC
CC
00
30
30
30
30
30
30
30
ENDCHAR
STARTCHAR eth
ENCODING 240
SWIDTH 585 0
DWIDTH 8 0
BBX 8 11 0 0
BITMAP
1C
3C
3C
16
3E
7F
E7
E7
E7
7E
3C
ENDCHAR
STARTCHAR ntilde
ENCODING 241
SWIDTH 606 0
DWIDTH 8 0
BBX 7 11 1 0
BITMAP
64
FC
58
00
FC
FE
CE
CE
CE
CE
C6
ENDCHAR
STARTCHAR ograve
ENCODING 242
SWIDTH 600 0
DWIDTH 8 0
BBX 8 11 0 0
BITMAP
30
3C
0C
08
3E
7F
E7
E3
77
7E
3C
ENDCHAR
STARTCHAR oacute
ENCODING 243
SWIDTH 600 0
DWIDTH 8 0
BBX 8 11 0 0
BITMAP
04
3E
18
08
3E
7F
E7
E3
77
7E
3C
ENDCHAR
STARTCHAR ocircumflex
ENCODING 244
SWIDTH 600 0
DWIDTH 8 0
BBX 8 11 0 0
BITMAP
18
7E
26
08
3E
7F
E7
E3
77
7E
3C
ENDCHAR
STARTCHAR otilde
ENCODING 245
SWIDTH 600 0
DWIDTH 8 0
BBX 8 11 0 0
BITMAP
32
7E
2C
08
3E
7F
E7
E3
77
7E
3C
ENDCHAR
STARTCHAR odieresis
ENCODING 246
SWIDTH 600 0
DWIDTH 8 0
BBX 8 11 0 0
BITMAP
66
76
66
08
3E
7F
E7
E3
77
7E
3C
ENDCHAR
STARTCHAR divide
ENCODING 247
SWIDTH 503 0
DWIDTH 7 0
BBX 7 8 0 0
BITMAP
10
38
10
FE
FE
00
38
38
ENDCHAR
STARTCHAR oslash
ENCODING 248
SWIDTH 600 0
DWIDTH 8 0
BBX 8 12 0 -2
BITMAP
02
07
0E
3E
7F
E7
E3
77
7E
7C
60
60
ENDCHAR
STARTCHAR ugrave
ENCODING 249
SWIDTH 606 0
DWIDTH 8 0
BBX 7 11 1 0
BITMAP
60
78
18
00
CE
CE
CE
CE
FE
FE
76
ENDCHAR
STARTCHAR uacute
ENCODING 250
SWIDTH 606 0
DWIDTH 8 0
BBX 7 11 1 0
BITMAP
08
3C
30
00
CE
CE
CE
CE
FE
FE
76
ENDCHAR
STARTCHAR ucircumflex
ENCODING 251
SWIDTH 606 0
DWIDTH 8 0
BBX 7 11 1 0
BITMAP
30
FC
6C
00
CE
CE
CE
CE
FE
FE
76
ENDCHAR
STARTCHAR udieresis
ENCODING 252
SWIDTH 606 0
DWIDTH 8 0
BBX 7 11 1 0
BITMAP
CC
EC
CC
00
CE
CE
CE
CE
FE
FE
76
ENDCHAR
STARTCHAR yacute
ENCODING 253
SWIDTH 604 0
DWIDTH 8 0
BBX 8 14 0 -3
BITMAP
04
1E
18
40
E3
67
76
3E
3E
1C
1C
18
38
30
ENDCHAR
STARTCHAR thorn
ENCODING 254
SWIDTH 580 0
DWIDTH 8 0
BBX 7 14 1 -3
BITMAP
C0
C0
C0
C0
F8
FC
CE
CE
FE
FC
F8
C0
C0
C0
ENDCHAR
STARTCHAR ydieresis
ENCODING 255
SWIDTH 604 0
DWIDTH 8 0
BBX 8 14 0 -3
BITMAP
76
77
26
40
E3
67
76
3E
3E
1C
1C
18
38
30
ENDCHAR
STARTCHAR dotlessi
ENCODING 305
SWIDTH 255 0
DWIDTH 4 0
BBX 2 7 1 0
BITMAP
C0
C0
C0
C0
C0
C0
C0
ENDCHAR
STARTCHAR Lslash
ENCODING 321
SWIDTH 687 0
DWIDTH 10 0
BBX 9 10 0 0
BITMAP
3000
3000
3000
3C00
7C00
F000
3000
3000
3F80
3F80
ENDCHAR
STARTCHAR lslash
ENCODING 322
SWIDTH 468 0
DWIDTH 7 0
BBX 6 11 0 0
BITMAP
30
30
30
30
3C
FC
F0
30
30
3C
3C
ENDCHAR
STARTCHAR OE
ENCODING 338
SWIDTH 1092 0
DWIDTH 15 0
BBX 15 10 0 0
BITMAP
1FFE
3FFE
7180
6180
E1F8
E1F8
6180
7980
3FFE
1FFE
ENDCHAR
STARTCHAR oe
ENCODING 339
SWIDTH 944 0
DWIDTH 13 0
BBX 13 8 0 0
BITMAP
0800
3FF0
7FF8
E738
E3F8
6700
7FF8
3DF0
ENDCHAR
STARTCHAR Scaron
ENCODING 352
SWIDTH 583 0
DWIDTH 8 0
BBX 8 14 0 0
BITMAP
24
7E
3C
00
7E
7E
64
70
7E
1F
47
E7
7E
3C
ENDCHAR
STARTCHAR scaron
ENCODING 353
SWIDTH 489 0
DWIDTH 7 0
BBX 7 11 0 0
BITMAP
4C
FC
30
10
7C
6C
78
7C
4E
FC
7C
ENDCHAR
STARTCHAR Ydieresis
ENCODING 376
SWIDTH 686 0
DWIDTH 10 0
BBX 9 14 0 0
BITMAP
3300
3700
3300
0000
E180
E380
7300
3F00
3E00
1C00
0C00
0C00
0C00
0C00
ENDCHAR
STARTCHAR Zcaron
ENCODING 381
SWIDTH 643 0
DWIDTH 9 0
BBX 9 14 0 0
BITMAP
2200
3E00
1C00
0000
FF00
FF00
0700
0E00
1C00
3800
3800
7000
FF80
7F80
ENDCHAR
STARTCHAR zcaron
ENCODING 382
SWIDTH 586 0
DWIDTH 8 0
BBX 8 11 0 0
BITMAP
26
7E
18
00
7F
7E
1C
38
70
FF
7F
ENDCHAR
STARTCHAR florin
ENCODING 402
SWIDTH 529 0
DWIDTH 7 0
BBX 7 13 0 -3
BITMAP
0E
1E
18
7E
7E
18
38
38
38
30
30
F0
E0
ENDCHAR
STARTCHAR circumflex
ENCODING 710
SWIDTH 603 0
DWIDTH 8 0
BBX 6 3 1 8
BITMAP
30
FC
4C
ENDCHAR
STARTCHAR caron
ENCODING 711
SWIDTH 600 0
DWIDTH 8 0
BBX 6 3 1 8
BITMAP
4C
FC
30
ENDCHAR
STARTCHAR dotaccent
ENCODING 729
SWIDTH 285 0
DWIDTH 4 0
BBX 2 2 1 10
BITMAP
C0
C0
ENDCHAR
STARTCHAR ring
ENCODING 730
SWIDTH 378 0
DWIDTH 5 0
BBX 3 4 1 9
BITMAP
60
A0
A0
60
ENDCHAR
STARTCHAR ogonek
ENCODING 731
SWIDTH 570 0
DWIDTH 8 0
BBX 3 3 2 -3
BITMAP
60
E0
60
ENDCHAR
STARTCHAR tilde
ENCODING 732
SWIDTH 584 0
DWIDTH 8 0
BBX 6 3 1 8
BITMAP
68
FC
58
ENDCHAR
STARTCHAR endash
ENCODING 8211
SWIDTH 561 0
DWIDTH 8 0
BBX 8 2 0 3
BITMAP
FF
FF
ENDCHAR
STARTCHAR emdash
ENCODING 8212
SWIDTH 693 0
DWIDTH 10 0
BBX 9 2 0 3
BITMAP
FF80
FF80
ENDCHAR
STARTCHAR quoteleft
ENCODING 8216
SWIDTH 237 0
DWIDTH 3 0
BBX 3 5 0 5
BITMAP
60
40
E0
E0
40
ENDCHAR
STARTCHAR quoteright
ENCODING 8217
SWIDTH 237 0
DWIDTH 3 0
BBX 3 5 0 5
BITMAP
E0
E0
60
40
80
ENDCHAR
STARTCHAR quotesinglbase
ENCODING 8218
SWIDTH 237 0
DWIDTH 3 0
BBX 3 5 0 -2
BITMAP
40
E0
E0
60
C0
ENDCHAR
STARTCHAR quotedblleft
ENCODING 8220
SWIDTH 482 0
DWIDTH 7 0
BBX 6 5 0 5
BITMAP
64
4C
EC
EC
4C
ENDCHAR
STARTCHAR quotedblright
ENCODING 8221
SWIDTH 482 0
DWIDTH 7 0
BBX 6 5 0 5
BITMAP
EC
EC
64
4C
88
ENDCHAR
STARTCHAR quotedblbase
ENCODING 8222
SWIDTH 482 0
DWIDTH 7 0
BBX 6 5 0 -2
BITMAP
4C
EC
EC
64
CC
ENDCHAR
STARTCHAR dagger
ENCODING 8224
SWIDTH 527 0
DWIDTH 7 0
BBX 7 13 0 -3
BITMAP
38
38
38
FE
FE
38
38
38
38
38
38
38
18
ENDCHAR
STARTCHAR daggerdbl
ENCODING 8225
SWIDTH 527 0
DWIDTH 7 0
BBX 7 13 0 -3
BITMAP
38
38
38
FE
FE
38
38
FE
FE
38
38
38
18
ENDCHAR
STARTCHAR bullet
ENCODING 8226
SWIDTH 342 0
DWIDTH 5 0
BBX 4 4 0 2
BITMAP
70
F0
F0
20
ENDCHAR
STARTCHAR ellipsis
ENCODING 8230
SWIDTH 911 0
DWIDTH 13 0
BBX 12 3 0 0
BITMAP
4230
E730
E730
ENDCHAR
STARTCHAR perthousand
ENCODING 8240
SWIDTH 1223 0
DWIDTH 17 0
BBX 16 11 1 0
BITMAP
0100
F300
B200
9600
F400
6C00
0BDE
1BDE
1653
33DE
238E
ENDCHAR
STARTCHAR guilsinglleft
ENCODING 8249
SWIDTH 383 0
DWIDTH 5 0
BBX 5 7 0 0
BITMAP
18
38
70
E0
70
38
18
ENDCHAR
STARTCHAR guilsinglright
ENCODING 8250
SWIDTH 383 0
DWIDTH 5 0
BBX 5 7 0 0
BITMAP
E0
F0
78
38
70
E0
40
ENDCHAR
STARTCHAR fraction
ENCODING 8260
SWIDTH 433 0
DWIDTH 6 0
BBX 6 11 1 0
BITMAP
04
0C
08
18
10
30
20
60
40
C0
80
ENDCHAR
STARTCHAR Euro
ENCODING 8364
SWIDTH 612 0
DWIDTH 9 0
BBX 8 11 0 0
BITMAP
0F
3F
3F
30
FE
70
FE
30
38
3F
1F
ENDCHAR
STARTCHAR trademark
ENCODING 8482
SWIDTH 840 0
DWIDTH 12 0
BBX 11 6 0 3
BITMAP
FA20
FB60
33E0
33E0
3260
2220
ENDCHAR
STARTCHAR minus
ENCODING 8722
SWIDTH 581 0
DWIDTH 8 0
BBX 8 2 0 3
BITMAP
FF
FF
ENDCHAR
STARTCHAR f_f
ENCODING 64256
SWIDTH 803 0
DWIDTH 11 0
BBX 11 11 0 0
BITMAP
1CE0
3DE0
3BC0
7380
FFE0
FFE0
7380
7380
7380
7380
3180
ENDCHAR
STARTCHAR fi
ENCODING 64257
SWIDTH 709 0
DWIDTH 10 0
BBX 9 11 0 0
BITMAP
1D80
3D80
3980
7000
FD80
FD80
7180
7180
7180
7180
3180
ENDCHAR
STARTCHAR fl
ENCODING 64258
SWIDTH 774 0
DWIDTH 11 0
BBX 11 11 0 0
BITMAP
1D80
3D80
3980
7180
FD80
FD80
7180
7180
7180
71E0
31E0
ENDCHAR
STARTCHAR f_f_i
ENCODING 64259
SWIDTH 1059 0
DWIDTH 15 0
BBX 14 11 0 0
BITMAP
1CEC
3DEC
3BCC
7380
FFEC
FFEC
738C
738C
738C
738C
318C
ENDCHAR
STARTCHAR .notdef
ENCODING -1
SWIDTH 500 0
DWIDTH 7 0
BBX 1 1 0 0
BITMAP
00
ENDCHAR
STARTCHAR .null
ENCODING -1
SWIDTH 0 0
DWIDTH 0 0
BBX 1 1 0 0
BITMAP
00
ENDCHAR
STARTCHAR nonmarkingreturn
ENCODING -1
SWIDTH 333 0
DWIDTH 5 0
BBX 1 1 0 0
BITMAP
00
ENDCHAR
STARTCHAR f_t
ENCODING -1
SWIDTH 814 0
DWIDTH 11 0
BBX 11 11 0 0
BITMAP
1C00
3D80
3980
7180
FFE0
FFE0
7180
7180
7180
71E0
30E0
ENDCHAR
STARTCHAR t_t
ENCODING -1
SWIDTH 794 0
DWIDTH 11 0
BBX 11 10 0 0
BITMAP
3380
7380
7380
FFE0
FFE0
7380
7380
3380
3DE0
1DC0
ENDCHAR
STARTCHAR l_l
ENCODING -1
SWIDTH 626 0
DWIDTH 9 0
BBX 8 11 1 0
BITMAP
DC
DC
DC
DC
DC
DC
DC
DC
DC
EF
EE
ENDCHAR
STARTCHAR j_j
ENCODING -1
SWIDTH 521 0
DWIDTH 7 0
BBX 9 14 -2 -3
BITMAP
1900
1B80
1900
0000
1B80
1B80
1B80
1B80
1B80
1B80
1B80
3B80
F700
F700
ENDCHAR
ENDFONT
